<svg width="14" height="15" viewBox="0 0 14 15" fill="none" xmlns="http://www.w3.org/2000/svg">
<rect width="14" height="14" transform="translate(0 1)" fill="white"/>
<path d="M10.8594 4.7334C10.8594 2.59277 9.12504 0.858398 6.98441 0.858398C4.84379 0.858398 3.10941 2.59277 3.10941 4.7334C3.10941 6.02715 3.74379 7.17402 4.71879 7.87715C4.71254 7.88027 4.70785 7.88184 4.70473 7.8834C4.00629 8.17871 3.37973 8.60215 2.84066 9.14277C2.30471 9.67775 1.87803 10.3119 1.58441 11.01C1.29553 11.6935 1.13962 12.4258 1.12504 13.1678C1.12462 13.1844 1.12755 13.201 1.13364 13.2166C1.13974 13.2321 1.14888 13.2462 1.16053 13.2582C1.17218 13.2701 1.1861 13.2796 1.20147 13.2861C1.21684 13.2926 1.23336 13.2959 1.25004 13.2959H2.18598C2.25316 13.2959 2.30941 13.2412 2.31098 13.174C2.34223 11.9678 2.82504 10.8381 3.67973 9.98184C4.56254 9.0959 5.73441 8.6084 6.98441 8.6084C9.12504 8.6084 10.8594 6.87402 10.8594 4.7334ZM6.98441 7.4209C5.50004 7.4209 4.29691 6.21777 4.29691 4.7334C4.29691 3.24902 5.50004 2.0459 6.98441 2.0459C8.46879 2.0459 9.67191 3.24902 9.67191 4.7334C9.67191 6.21777 8.46879 7.4209 6.98441 7.4209ZM8.62504 10.874H12.75C12.8188 10.874 12.875 10.8178 12.875 10.749V9.87402C12.875 9.80527 12.8188 9.74902 12.75 9.74902H9.99223L10.7297 8.80996C10.7467 8.78804 10.7561 8.76114 10.7563 8.7334C10.7563 8.66465 10.7 8.6084 10.6313 8.6084H9.49691C9.42035 8.6084 9.34848 8.64434 9.30004 8.70371L8.22973 10.0646C8.16098 10.1521 8.12348 10.2615 8.12348 10.374C8.12504 10.6506 8.34848 10.874 8.62504 10.874ZM12.375 11.874H8.25004C8.18129 11.874 8.12504 11.9303 8.12504 11.999V12.874C8.12504 12.9428 8.18129 12.999 8.25004 12.999H11.0079L10.2704 13.9381C10.2533 13.96 10.244 13.9869 10.2438 14.0146C10.2438 14.0834 10.3 14.1396 10.3688 14.1396H11.5032C11.5797 14.1396 11.6516 14.1037 11.7 14.0443L12.7704 12.6834C12.8391 12.5959 12.8766 12.4865 12.8766 12.374C12.875 12.0975 12.6516 11.874 12.375 11.874Z" fill="black" fillOpacity="0.85"/>
</svg>
