<svg width="479" height="570" viewBox="0 0 479 570" fill="none" xmlns="http://www.w3.org/2000/svg">
<path d="M222.914 81.6282C232.995 75.808 245.416 75.808 255.496 81.6282L430.072 182.42C440.153 188.24 446.363 198.996 446.363 210.637V412.22C446.363 423.86 440.153 434.616 430.072 440.436L255.496 541.228C245.416 547.048 232.995 547.048 222.914 541.228L48.3384 440.436C38.2575 434.616 32.0475 423.86 32.0475 412.22V210.637C32.0475 198.996 38.2575 188.24 48.3384 182.42L222.914 81.6282Z" fill="url(#paint0_linear_36_1322)"/>
<mask id="mask0_36_1322" style="mask-type:alpha" maskUnits="userSpaceOnUse" x="239" y="199" width="213" height="371">
<path d="M239.477 322.924V540.844V569.999L449.7 461.502L446.322 397.104C446.322 353.447 451.259 258.906 451.259 236.517C451.259 214.127 447.399 202.914 446.1 199.835L239.477 322.924Z" fill="#371997"/>
</mask>
<g mask="url(#mask0_36_1322)">
<path d="M222.914 81.6273C232.995 75.8071 245.416 75.8071 255.496 81.6273L430.072 182.419C440.153 188.239 446.363 198.995 446.363 210.636V412.219C446.363 423.859 440.153 434.615 430.072 440.435L255.496 541.227C245.416 547.047 232.995 547.047 222.914 541.227L48.3384 440.435C38.2575 434.615 32.0475 423.859 32.0475 412.219V210.636C32.0475 198.995 38.2575 188.239 48.3384 182.419L222.914 81.6273Z" fill="url(#paint1_linear_36_1322)"/>
</g>
<mask id="mask1_36_1322" style="mask-type:alpha" maskUnits="userSpaceOnUse" x="27" y="197" width="213" height="373">
<path d="M239.477 322.924V540.845V570L29.2533 461.502L32.6315 397.104C32.6315 353.447 27.6942 258.907 27.6942 236.517C27.6942 214.127 29.6531 201.014 30.9524 197.935L239.477 322.924Z" fill="#371997"/>
</mask>
<g mask="url(#mask1_36_1322)">
<path d="M255.496 81.6282C245.415 75.808 232.995 75.808 222.914 81.6282L48.3377 182.42C38.2568 188.24 32.0467 198.996 32.0467 210.637V412.22C32.0467 423.86 38.2568 434.616 48.3377 440.436L222.914 541.228C232.995 547.048 245.415 547.048 255.496 541.228L430.072 440.436C440.153 434.616 446.363 423.86 446.363 412.22V210.637C446.363 198.996 440.153 188.24 430.072 182.42L255.496 81.6282Z" fill="url(#paint2_linear_36_1322)"/>
</g>
<path d="M81.4531 228.073L239.475 319.846M239.475 319.846L395.868 229.431M239.475 319.846V481.397" stroke="white" stroke-width="11.9467" stroke-linecap="round"/>
<ellipse cx="244.365" cy="195.763" rx="47.2438" ry="32.3104" fill="#355FAD"/>
<circle cx="245.721" cy="68.1505" r="64.8923" fill="white" stroke="#4F7DD1" stroke-width="6.51638"/>
<circle cx="245.722" cy="68.1498" r="45.8862" fill="#F8BB2F"/>
<path d="M235.143 191.69C235.143 196.782 239.271 200.91 244.363 200.91C249.456 200.91 253.584 196.782 253.584 191.69L235.143 191.69ZM235.143 121.639L235.143 191.69L253.584 191.69L253.584 121.639L235.143 121.639Z" fill="white"/>
<defs>
<linearGradient id="paint0_linear_36_1322" x1="175.399" y1="84.7124" x2="443.385" y2="644.578" gradientUnits="userSpaceOnUse">
<stop stop-color="#5684D9"/>
<stop offset="1" stop-color="#154192"/>
</linearGradient>
<linearGradient id="paint1_linear_36_1322" x1="386.91" y1="149.332" x2="303.555" y2="592.175" gradientUnits="userSpaceOnUse">
<stop stop-color="#5A88DE"/>
<stop offset="1" stop-color="#154192"/>
</linearGradient>
<linearGradient id="paint2_linear_36_1322" x1="267.171" y1="219.927" x2="33.9387" y2="530.27" gradientUnits="userSpaceOnUse">
<stop stop-color="#5086E9"/>
<stop offset="1" stop-color="#154192"/>
</linearGradient>
</defs>
</svg>
